<svg xmlns="http://www.w3.org/2000/svg" width="1200" height="1600" viewBox="0 0 1200 1600">
  <defs>
    <linearGradient id="bg" x1="0%" y1="0%" x2="100%" y2="100%">
      <stop offset="0%" style="stop-color:#0f0c29"/>
      <stop offset="50%" style="stop-color:#302b63"/>
      <stop offset="100%" style="stop-color:#24243e"/>
    </linearGradient>
    <radialGradient id="glow1" cx="30%" cy="40%" r="50%">
      <stop offset="0%" style="stop-color:rgba(99,102,241,0.4)"/>
      <stop offset="100%" style="stop-color:transparent"/>
    </radialGradient>
    <radialGradient id="glow2" cx="70%" cy="60%" r="40%">
      <stop offset="0%" style="stop-color:rgba(139,92,246,0.3)"/>
      <stop offset="100%" style="stop-color:transparent"/>
    </radialGradient>
  </defs>
  <rect width="1200" height="1600" fill="url(#bg)"/>
  <rect width="1200" height="1600" fill="url(#glow1)"/>
  <rect width="1200" height="1600" fill="url(#glow2)"/>
  <!-- Grid pattern -->
  <g stroke="rgba(99,102,241,0.08)" stroke-width="1">
    <line x1="0" y1="0" x2="0" y2="1600"/><line x1="40" y1="0" x2="40" y2="1600"/><line x1="80" y1="0" x2="80" y2="1600"/><line x1="120" y1="0" x2="120" y2="1600"/><line x1="160" y1="0" x2="160" y2="1600"/><line x1="200" y1="0" x2="200" y2="1600"/><line x1="240" y1="0" x2="240" y2="1600"/><line x1="280" y1="0" x2="280" y2="1600"/><line x1="320" y1="0" x2="320" y2="1600"/><line x1="360" y1="0" x2="360" y2="1600"/><line x1="400" y1="0" x2="400" y2="1600"/><line x1="440" y1="0" x2="440" y2="1600"/><line x1="480" y1="0" x2="480" y2="1600"/><line x1="520" y1="0" x2="520" y2="1600"/><line x1="560" y1="0" x2="560" y2="1600"/><line x1="600" y1="0" x2="600" y2="1600"/><line x1="640" y1="0" x2="640" y2="1600"/><line x1="680" y1="0" x2="680" y2="1600"/><line x1="720" y1="0" x2="720" y2="1600"/><line x1="760" y1="0" x2="760" y2="1600"/><line x1="800" y1="0" x2="800" y2="1600"/><line x1="840" y1="0" x2="840" y2="1600"/><line x1="880" y1="0" x2="880" y2="1600"/><line x1="920" y1="0" x2="920" y2="1600"/><line x1="960" y1="0" x2="960" y2="1600"/><line x1="1000" y1="0" x2="1000" y2="1600"/><line x1="1040" y1="0" x2="1040" y2="1600"/><line x1="1080" y1="0" x2="1080" y2="1600"/><line x1="1120" y1="0" x2="1120" y2="1600"/><line x1="1160" y1="0" x2="1160" y2="1600"/><line x1="1200" y1="0" x2="1200" y2="1600"/>
    <line x1="0" y1="0" x2="1200" y2="0"/><line x1="0" y1="40" x2="1200" y2="40"/><line x1="0" y1="80" x2="1200" y2="80"/><line x1="0" y1="120" x2="1200" y2="120"/><line x1="0" y1="160" x2="1200" y2="160"/><line x1="0" y1="200" x2="1200" y2="200"/><line x1="0" y1="240" x2="1200" y2="240"/><line x1="0" y1="280" x2="1200" y2="280"/><line x1="0" y1="320" x2="1200" y2="320"/><line x1="0" y1="360" x2="1200" y2="360"/><line x1="0" y1="400" x2="1200" y2="400"/><line x1="0" y1="440" x2="1200" y2="440"/><line x1="0" y1="480" x2="1200" y2="480"/><line x1="0" y1="520" x2="1200" y2="520"/><line x1="0" y1="560" x2="1200" y2="560"/><line x1="0" y1="600" x2="1200" y2="600"/><line x1="0" y1="640" x2="1200" y2="640"/><line x1="0" y1="680" x2="1200" y2="680"/><line x1="0" y1="720" x2="1200" y2="720"/><line x1="0" y1="760" x2="1200" y2="760"/><line x1="0" y1="800" x2="1200" y2="800"/><line x1="0" y1="840" x2="1200" y2="840"/><line x1="0" y1="880" x2="1200" y2="880"/><line x1="0" y1="920" x2="1200" y2="920"/><line x1="0" y1="960" x2="1200" y2="960"/><line x1="0" y1="1000" x2="1200" y2="1000"/><line x1="0" y1="1040" x2="1200" y2="1040"/><line x1="0" y1="1080" x2="1200" y2="1080"/><line x1="0" y1="1120" x2="1200" y2="1120"/><line x1="0" y1="1160" x2="1200" y2="1160"/><line x1="0" y1="1200" x2="1200" y2="1200"/><line x1="0" y1="1240" x2="1200" y2="1240"/><line x1="0" y1="1280" x2="1200" y2="1280"/><line x1="0" y1="1320" x2="1200" y2="1320"/><line x1="0" y1="1360" x2="1200" y2="1360"/><line x1="0" y1="1400" x2="1200" y2="1400"/><line x1="0" y1="1440" x2="1200" y2="1440"/><line x1="0" y1="1480" x2="1200" y2="1480"/><line x1="0" y1="1520" x2="1200" y2="1520"/><line x1="0" y1="1560" x2="1200" y2="1560"/><line x1="0" y1="1600" x2="1200" y2="1600"/>
  </g>
  <!-- Decorative circles -->
  <circle cx="350" cy="500" r="200" fill="none" stroke="rgba(99,102,241,0.15)" stroke-width="2"/>
  <circle cx="350" cy="500" r="280" fill="none" stroke="rgba(99,102,241,0.08)" stroke-width="1"/>
  <circle cx="800" cy="900" r="150" fill="none" stroke="rgba(139,92,246,0.12)" stroke-width="2"/>
  <circle cx="800" cy="900" r="220" fill="none" stroke="rgba(139,92,246,0.06)" stroke-width="1"/>
  <!-- Floating dots -->
  <circle cx="200" cy="300" r="4" fill="rgba(99,102,241,0.6)"/>
  <circle cx="900" cy="400" r="3" fill="rgba(139,92,246,0.5)"/>
  <circle cx="600" cy="700" r="5" fill="rgba(99,102,241,0.4)"/>
  <circle cx="400" cy="1100" r="3" fill="rgba(139,92,246,0.6)"/>
  <circle cx="1000" cy="1200" r="4" fill="rgba(99,102,241,0.5)"/>
</svg>